<svg xmlns="http://www.w3.org/2000/svg" width="168" height="168"><defs><clipPath id="a"><path d="M2.332 65H47.25v64H2.332Zm0 0"/></clipPath></defs><path d="M82.348 139.465h-25.63c-8.476 0-15.792-4.969-19.183-12.16-.082-.184-.172-.375-.25-.567a21 21 0 0 1-1.758-8.457c0-3.8.996-7.363 2.743-10.445l1.496-2.59c4.914-8.383 21.547-36.187 37.062-55.07-2.59 3.465-66.043 89.289 5.52 89.289m0 0" style="stroke:none;fill-rule:nonzero;fill:#a384fc;fill-opacity:1"/><path d="M124.02 139.465H82.348c-71.555 0-8.102-85.824-5.52-89.29.016-.019.027-.034.043-.046.027-.043.047-.055.047-.055a3.983 3.983 0 0 1-2.059-5.613c.028-.063.063-.11.098-.164a3.96 3.96 0 0 1 1.887-1.613l30.683-14.313A4.2 4.2 0 0 1 109.22 28a3.98 3.98 0 0 1 2.844 1.176l9.027 9.062s2.332 2.258 1.64 6.668c-.68 4.422-1.96 11.824-6.828 18.469-4.859 6.633-10.39 13.508-11.386 22.738v.047a30 30 0 0 0-.317 4.438c0 .304 0 .609.016.914v.008c.156 5.585 1.469 8.312 2.433 11.136 1.832 5.387 1.332 10.055 1.352 10.137-7.824-3.625-16.543-5.633-25.723-5.633-1.586 0-3.152.055-4.71.18 27.953.312 34.992 16.289 36.609 21.93 0 .011.004.023.004.039q.217.888.433 1.894v.02s5.29.191 7.942 3.82c.054.082.12.164.175.246.727 1.09 1.22 2.461 1.293 4.2Zm0 0" style="stroke:none;fill-rule:nonzero;fill:#7b4efa;fill-opacity:1"/><g clip-path="url(#a)"><path d="M43.934 71.266a10.66 10.66 0 0 1 1.695 12.87l-12.04 20.844s-.019.028-.019.04a26.54 26.54 0 0 0-3.527 13.257c0 3.633.727 7.102 2.05 10.266L4.314 100.77a6.78 6.78 0 0 1-1.075-8.172l9.985-17.285c6.418-11.118 21.632-13.126 30.71-4.047m0 0" style="stroke:none;fill-rule:nonzero;fill:#a384fc;fill-opacity:1"/></g><path d="m159.598 101.863-25.055 25.055a5.58 5.58 0 0 1-7.879 0l-7.324-7.324 22.527-22.524-22.527-22.52 7.324-7.32a5.58 5.58 0 0 1 7.879 0l25.055 25.055a6.757 6.757 0 0 1 0 9.57Zm0 0" style="stroke:none;fill-rule:nonzero;fill:#a384fc;fill-opacity:1"/></svg>